<svg version="1.1" xmlns="http://www.w3.org/2000/svg" style="display: block;" viewBox="0 0 2048 2048" width="1024" height="1024" preserveAspectRatio="none">
<path transform="translate(0,0)" fill="rgb(254,254,254)" d="M 1032.68 441.448 C 1036.58 441.249 1041.8 441.636 1045.73 441.918 C 1085.27 444.698 1122.38 462.025 1149.89 490.555 C 1158.48 499.304 1167.81 511.298 1176.03 520.832 C 1204.34 522.23 1240.65 525.882 1264.14 542.976 C 1270.41 547.539 1277.78 554.118 1279.03 562.101 C 1276.23 569.677 1266.37 568.861 1259.02 571.68 C 1220.23 586.55 1179.76 598.898 1174.75 646.244 C 1170.09 690.339 1199.59 715.662 1218.01 752.114 C 1232.26 780.323 1243.45 811.114 1245.83 842.773 C 1254.22 966.459 1146.97 1102.55 1072.23 1191.26 C 1058.13 1208.74 1039.5 1229.38 1024.25 1245.72 C 951.649 1161.71 878.674 1081.63 832.38 978.536 C 816.414 942.982 803.65 906.499 802.239 867.074 C 800.762 825.805 813.858 780.673 835.14 745.457 C 844.307 729.329 856.452 713.568 861.064 695.3 C 869.202 663.065 862.856 627.784 864.984 594.884 C 867.299 557.233 882.591 521.549 908.258 493.905 C 941.269 458.482 985.251 443.123 1032.68 441.448 z M 885.713 696.003 C 881.112 709.374 876.954 717.191 870.035 729.592 L 983.359 983.289 C 995.175 1009.68 1014.94 1049.94 1024.36 1075.78 C 1035.84 1046.19 1050.26 1018.64 1062.79 989.72 C 1100.54 902.614 1142.25 815.483 1179.14 728.108 C 1150.06 681.236 1139.68 654.685 1166.74 603.44 C 1134.09 582.696 1140.35 584.551 1124.08 550.283 C 1110.9 522.532 1074.89 504.392 1043.67 509.353 C 973.506 517.88 949.273 594.878 976.657 652.228 C 987.857 675.683 1035.29 740.138 1026.89 762.875 C 1016.96 767.831 976.478 744.164 965.82 738.666 C 938.999 724.833 912.598 709.802 885.713 696.003 z M 1179.36 587.474 C 1189.86 579.957 1195.85 575.604 1207.44 569.855 C 1219.32 565.166 1235.26 560.44 1245.73 555.889 C 1223.56 545.895 1198.21 542.336 1174.05 540.703 C 1168.59 548.903 1157.38 563.193 1153.25 570.284 C 1162.38 577.401 1169 582.12 1179.36 587.474 z"/>
<path transform="translate(0,0)" fill="rgb(254,254,254)" d="M 950.369 760.612 C 963.188 761.527 994.771 780.616 1007.81 787.899 C 1021.46 780.158 1026.75 781.116 1040.49 787.561 C 1050.42 782.102 1083.53 763.99 1092.46 761.915 C 1111.9 757.395 1107.13 834.823 1099.34 845.659 C 1094.17 847.967 1091.78 847.934 1086.54 845.684 C 1071.59 839.265 1056.14 830.736 1042.27 822.356 C 1028.81 829.519 1020.11 830.713 1006.98 821.881 C 995.905 828.432 959.641 851.703 951.193 846.658 C 936.269 837.745 943.705 773.931 950.369 760.612 z"/>
<path transform="translate(0,0)" fill="rgb(254,254,254)" d="M 1071.86 551.714 C 1077.78 550.451 1083.95 551.872 1088.72 555.596 C 1093.49 559.32 1096.36 564.964 1096.56 571.009 C 1096.9 580.9 1090.11 589.612 1080.43 591.693 C 1069.39 594.068 1058.51 587.036 1056.14 575.991 C 1053.78 564.946 1060.82 554.074 1071.86 551.714 z"/>
<path transform="translate(0,0)" fill="rgb(254,254,254)" d="M 1022.47 939.013 C 1029.92 938.079 1036.75 943.283 1037.82 950.716 C 1038.89 958.149 1033.82 965.074 1026.41 966.287 C 1021.49 967.092 1016.52 965.178 1013.41 961.281 C 1010.3 957.384 1009.54 952.112 1011.42 947.494 C 1013.29 942.876 1017.52 939.633 1022.47 939.013 z"/>
<path transform="translate(0,0)" fill="rgb(254,254,254)" d="M 1023.1 874.059 C 1028.54 875.603 1033.58 877.608 1036.19 883.03 C 1037.81 886.372 1037.88 890.258 1036.37 893.651 C 1033.85 899.347 1029.81 901.252 1024.43 903.503 C 1007.18 897.665 1005.67 880.115 1023.1 874.059 z"/>
<path transform="translate(0,0)" fill="rgb(254,254,254)" d="M 1622.54 1373.3 C 1637.86 1370.72 1661.26 1376.89 1674.18 1385.65 C 1694.16 1399.17 1703.2 1416.44 1708.15 1439.56 C 1721.27 1500.84 1674.34 1562.06 1609.11 1544.41 C 1598.84 1541.63 1590.64 1536.04 1581.91 1529.87 L 1581.93 1566.39 C 1582.08 1579.7 1581.97 1593 1581.6 1606.3 C 1568.5 1607.47 1548.8 1606.96 1535.17 1606.99 C 1532.99 1595.83 1534.07 1547.87 1534.01 1533.62 L 1533.99 1446.13 C 1533.89 1422.51 1533.28 1398.71 1534.07 1375.13 C 1548.33 1375.61 1564.87 1375.08 1579.29 1374.95 C 1579.87 1382.83 1579.95 1385.54 1578.97 1393.33 C 1592.81 1379.32 1603.68 1376.17 1622.54 1373.3 z M 1627.95 1505.96 C 1654.49 1500.59 1665.59 1470.92 1660.13 1446.89 C 1654.53 1422.25 1638.8 1412.5 1615 1414.16 C 1574.39 1424.66 1569.89 1479.01 1602.94 1501.16 C 1610.08 1505.94 1619.49 1506.24 1627.95 1505.96 z"/>
<path transform="translate(0,0)" fill="rgb(254,254,254)" d="M 1245.5 1372.4 C 1261.78 1370.94 1281.94 1378.27 1293.48 1389.66 C 1318.04 1413.88 1314.05 1450.65 1314.06 1482.24 L 1314.02 1544.34 C 1299.6 1545.36 1280.71 1544.8 1265.93 1544.74 L 1265.78 1479.92 C 1265.56 1458.61 1269.11 1414.58 1237.09 1414.01 C 1196.38 1413.29 1200.84 1458.87 1200.92 1486.98 L 1201.08 1544.18 C 1189.39 1545.39 1166.53 1544.7 1153.87 1544.62 C 1152.35 1517.41 1153.2 1484.46 1153.29 1456.75 C 1153.12 1446.99 1153.08 1432.16 1146.26 1424.83 C 1127.93 1405.05 1096.46 1415.71 1092.02 1441.93 C 1086.54 1474.22 1092.49 1510.17 1090.08 1542.66 L 1089.93 1544.52 C 1074.33 1544.79 1058.72 1544.92 1043.11 1544.88 C 1041.08 1491.14 1041.83 1429.08 1042.32 1374.98 L 1087.68 1375.24 C 1088.13 1382.75 1088.23 1387.07 1087.83 1394.56 C 1115.87 1365.01 1165.89 1363.51 1189.5 1399.42 C 1206.06 1379.43 1220.26 1375.17 1245.5 1372.4 z"/>
<path transform="translate(0,0)" fill="rgb(254,254,254)" d="M 920.57 1373.34 C 948.473 1367.67 986.294 1384.78 1000.7 1409.13 C 1012.87 1429.71 1015.17 1451.16 1012.81 1474.48 C 1002.52 1475.24 983.003 1474.7 972.1 1474.71 L 889.853 1474.73 C 898.943 1494.6 910.159 1506.73 933.765 1507.94 C 951.296 1508.83 962.996 1502.74 975.501 1491.2 C 978.834 1493.69 981.617 1496.45 984.651 1499.29 C 990.822 1505.19 996.926 1511.16 1002.96 1517.2 C 974.291 1555.16 913.504 1556.97 877.099 1530.21 C 858.875 1516.62 846.834 1496.31 843.648 1473.8 C 839.932 1449.29 846.303 1424.32 861.307 1404.59 C 876.897 1384.15 895.832 1376.64 920.57 1373.34 z M 889.15 1444.1 C 903.881 1444.11 921.579 1444.58 936.068 1443.96 C 946.916 1444 959.104 1444.3 969.845 1443.81 C 961.856 1419.12 951.578 1408.13 923.693 1410.26 C 903.839 1415.51 895.485 1424.47 889.15 1444.1 z"/>
<path transform="translate(0,0)" fill="rgb(254,254,254)" d="M 452.265 1319.44 C 486.4 1316.53 515.711 1333.02 538.138 1357.25 C 531.834 1365.55 514.724 1381.8 507.011 1389.34 L 506.029 1388.36 C 476.504 1359.33 438.437 1351.9 406.463 1383.48 C 380.789 1408.84 381.812 1461.3 408.712 1486.31 C 421.674 1498.23 438.781 1504.6 456.378 1504.07 C 478.022 1503.24 492.54 1490.96 506.451 1475.88 L 514.616 1484.36 C 520.344 1490.66 531.405 1500.81 537.667 1506.61 C 535.918 1509.23 534.013 1511.74 531.962 1514.13 C 513.767 1535.6 487.783 1546.22 460.152 1548.42 C 429.062 1550.81 398.32 1540.58 374.856 1520.05 C 312.601 1466.34 330.473 1356.56 408.081 1327.95 C 424.375 1321.94 434.944 1320.33 452.265 1319.44 z"/>
<path transform="translate(0,0)" fill="rgb(254,254,254)" d="M 1407.43 1373.38 C 1430.44 1370.37 1460.9 1375.86 1477.95 1392.53 C 1501.36 1415.41 1497.76 1454.56 1497.88 1484.51 L 1497.91 1544.47 C 1487.02 1545.32 1465.16 1544.99 1454.18 1544.41 C 1453.13 1538.14 1453.06 1533.51 1452.84 1527.17 C 1425.98 1553.88 1383.19 1555.54 1354.98 1530.27 C 1347.19 1521.43 1342.53 1510.29 1341.71 1498.54 C 1340.63 1481.43 1348.37 1463.26 1363.67 1454.67 C 1390.28 1439.73 1421.54 1445.17 1450.42 1443.33 C 1446.91 1428.57 1442.32 1417.1 1425.47 1413.36 C 1404.15 1408.64 1383.8 1416.19 1365.67 1427.21 C 1359.55 1417.68 1353.44 1405.09 1348.16 1394.86 C 1366.17 1380.94 1385.03 1375.87 1407.43 1373.38 z M 1398.06 1476.54 C 1371.06 1500.43 1402.46 1520 1428.56 1511.18 C 1447.33 1501.96 1448.97 1494.26 1449.14 1474.16 C 1436.22 1474.98 1422.67 1473.8 1409.83 1474.37 C 1405.53 1474.95 1402.26 1475.26 1398.06 1476.54 z"/>
<path transform="translate(0,0)" fill="rgb(254,254,254)" d="M 739.48 1373.31 C 759.22 1370.12 784.143 1377.21 797.781 1392.15 C 819.065 1415.46 814.558 1448.3 814.785 1477.29 C 814.96 1499.58 814.997 1521.7 813.95 1543.96 C 803.167 1545.38 779.125 1544.74 767.185 1544.69 C 763.891 1516.37 772.044 1451.49 760.619 1430.17 C 756.947 1423.32 751.183 1417.64 743.559 1415.52 C 733.042 1412.61 722.275 1416.5 713.201 1421.71 C 693.969 1437.54 697.57 1467.39 697.722 1489.88 L 697.98 1544.44 C 682.311 1545.09 665.396 1544.82 649.623 1544.83 C 648.298 1520.43 649.022 1489.27 649.048 1464.55 C 649.079 1435.54 648.346 1403.93 649.412 1375.29 C 662.893 1374.54 681.926 1375.03 695.732 1374.97 C 695.969 1381.36 695.832 1387.76 695.765 1394.16 C 708.538 1380.38 721.396 1375.92 739.48 1373.31 z"/>
<path transform="translate(0,0)" fill="rgb(254,254,254)" d="M 562.545 1375.17 C 578.337 1374.81 594.921 1375.14 610.775 1375.22 C 611.005 1383.59 611.075 1392.3 610.936 1400.68 C 610.149 1448.37 611.974 1496.9 610.592 1544.49 C 597.84 1545.38 577.021 1544.71 563.668 1544.69 C 562.234 1527.62 562.766 1502.07 562.673 1484.29 L 562.545 1375.17 z"/>
<path transform="translate(0,0)" fill="rgb(254,254,254)" d="M 580.057 1299.13 C 594.734 1297.95 608.967 1302.29 614.87 1317.1 C 617.49 1323.69 617.28 1331.07 614.29 1337.51 C 610.081 1346.57 602.991 1350.79 593.995 1353.94 C 586.726 1355.67 580 1355 573.198 1351.65 C 566.079 1348.13 560.7 1341.87 558.301 1334.29 C 556.061 1327.44 556.652 1319.98 559.943 1313.56 C 564.583 1304.68 571.185 1301.77 580.057 1299.13 z"/>
</svg>