<svg xmlns="http://www.w3.org/2000/svg" xmlns:xlink="http://www.w3.org/1999/xlink" width="2048" zoomAndPan="magnify" viewBox="0 0 1536 1535.999932" height="2048" preserveAspectRatio="xMidYMid meet" version="1.0"><path fill="#fefefe" d="M 770.410156 212.195312 C 774.136719 212.003906 779.121094 212.375 782.878906 212.644531 C 820.65625 215.300781 856.113281 231.855469 882.398438 259.113281 C 890.605469 267.472656 899.519531 278.933594 907.371094 288.042969 C 934.421875 289.378906 969.113281 292.867188 991.554688 309.199219 C 997.546875 313.558594 1004.589844 319.84375 1005.78125 327.472656 C 1003.109375 334.710938 993.6875 333.929688 986.664062 336.625 C 949.601562 350.832031 910.9375 362.628906 906.148438 407.867188 C 901.695312 449.996094 929.882812 474.191406 947.480469 509.019531 C 961.097656 535.972656 971.789062 565.390625 974.0625 595.636719 C 982.078125 713.8125 879.605469 843.839844 808.195312 928.597656 C 794.726562 945.300781 776.925781 965.019531 762.355469 980.632812 C 692.988281 900.363281 623.265625 823.851562 579.035156 725.351562 C 563.777344 691.382812 551.582031 656.523438 550.234375 618.855469 C 548.824219 579.425781 561.335938 536.304688 581.671875 502.65625 C 590.429688 487.25 602.03125 472.191406 606.441406 454.734375 C 614.214844 423.9375 608.152344 390.226562 610.183594 358.792969 C 612.398438 322.820312 627.007812 288.726562 651.53125 262.3125 C 683.070312 228.46875 725.09375 213.796875 770.410156 212.195312 Z M 629.988281 455.40625 C 625.59375 468.183594 621.621094 475.652344 615.011719 487.5 L 723.285156 729.894531 C 734.574219 755.109375 753.460938 793.574219 762.460938 818.261719 C 773.429688 789.992188 787.207031 763.667969 799.175781 736.039062 C 835.246094 652.8125 875.097656 569.5625 910.34375 486.082031 C 882.558594 441.296875 872.640625 415.929688 898.496094 366.96875 C 867.300781 347.148438 873.28125 348.921875 857.738281 316.179688 C 845.144531 289.664062 810.738281 272.335938 780.910156 277.074219 C 713.871094 285.222656 690.71875 358.789062 716.882812 413.582031 C 727.582031 435.992188 772.902344 497.578125 764.878906 519.300781 C 755.390625 524.035156 716.710938 501.421875 706.527344 496.167969 C 680.902344 482.953125 655.675781 468.59375 629.988281 455.40625 Z M 910.554688 351.714844 C 920.585938 344.53125 926.308594 340.375 937.382812 334.878906 C 948.734375 330.398438 963.964844 325.886719 973.964844 321.535156 C 952.785156 311.988281 928.5625 308.585938 905.480469 307.027344 C 900.261719 314.863281 889.554688 328.515625 885.605469 335.289062 C 894.332031 342.089844 900.65625 346.597656 910.554688 351.714844 Z M 910.554688 351.714844 " fill-opacity="1" fill-rule="nonzero"/><path fill="#fefefe" d="M 691.765625 517.136719 C 704.011719 518.011719 734.1875 536.25 746.648438 543.210938 C 759.6875 535.8125 764.742188 536.726562 777.871094 542.886719 C 787.359375 537.671875 818.992188 520.367188 827.527344 518.382812 C 846.097656 514.0625 841.542969 588.042969 834.097656 598.394531 C 829.160156 600.601562 826.875 600.570312 821.871094 598.417969 C 807.585938 592.285156 792.824219 584.136719 779.570312 576.132812 C 766.710938 582.976562 758.398438 584.117188 745.855469 575.675781 C 735.273438 581.9375 700.625 604.171875 692.550781 599.351562 C 678.292969 590.835938 685.398438 529.863281 691.765625 517.136719 Z M 691.765625 517.136719 " fill-opacity="1" fill-rule="nonzero"/><path fill="#fefefe" d="M 807.84375 317.546875 C 813.5 316.339844 819.394531 317.699219 823.953125 321.257812 C 828.507812 324.816406 831.25 330.207031 831.441406 335.984375 C 831.769531 345.433594 825.28125 353.757812 816.03125 355.746094 C 805.484375 358.015625 795.089844 351.296875 792.824219 340.742188 C 790.570312 330.191406 797.296875 319.800781 807.84375 317.546875 Z M 807.84375 317.546875 " fill-opacity="1" fill-rule="nonzero"/><path fill="#fefefe" d="M 760.652344 687.589844 C 767.773438 686.699219 774.296875 691.671875 775.320312 698.773438 C 776.34375 705.875 771.5 712.488281 764.417969 713.648438 C 759.71875 714.417969 754.96875 712.589844 751.996094 708.867188 C 749.027344 705.144531 748.300781 700.105469 750.097656 695.691406 C 751.882812 691.28125 755.925781 688.183594 760.652344 687.589844 Z M 760.652344 687.589844 " fill-opacity="1" fill-rule="nonzero"/><path fill="#fefefe" d="M 761.253906 625.53125 C 766.453125 627.003906 771.269531 628.921875 773.761719 634.101562 C 775.308594 637.292969 775.378906 641.007812 773.933594 644.25 C 771.527344 649.691406 767.667969 651.511719 762.527344 653.664062 C 746.046875 648.085938 744.601562 631.316406 761.253906 625.53125 Z M 761.253906 625.53125 " fill-opacity="1" fill-rule="nonzero"/><path fill="#fefefe" d="M 1333.988281 1102.527344 C 1348.625 1100.0625 1370.980469 1105.957031 1383.328125 1114.328125 C 1402.417969 1127.246094 1411.054688 1143.746094 1415.78125 1165.835938 C 1428.320312 1224.382812 1383.480469 1282.875 1321.15625 1266.011719 C 1311.34375 1263.355469 1303.507812 1258.015625 1295.167969 1252.121094 L 1295.1875 1287.015625 C 1295.332031 1299.730469 1295.226562 1312.4375 1294.871094 1325.144531 C 1282.355469 1326.261719 1263.53125 1325.777344 1250.511719 1325.804688 C 1248.425781 1315.140625 1249.460938 1269.320312 1249.402344 1255.703125 L 1249.382812 1172.113281 C 1249.289062 1149.542969 1248.703125 1126.804688 1249.460938 1104.277344 C 1263.082031 1104.734375 1278.886719 1104.226562 1292.664062 1104.105469 C 1293.21875 1111.632812 1293.296875 1114.222656 1292.359375 1121.664062 C 1305.582031 1108.277344 1315.96875 1105.269531 1333.988281 1102.527344 Z M 1339.15625 1229.277344 C 1364.515625 1224.144531 1375.121094 1195.796875 1369.902344 1172.839844 C 1364.550781 1149.296875 1349.523438 1139.980469 1326.785156 1141.566406 C 1287.984375 1151.597656 1283.683594 1203.527344 1315.261719 1224.691406 C 1322.082031 1229.257812 1331.074219 1229.542969 1339.15625 1229.277344 Z M 1339.15625 1229.277344 " fill-opacity="1" fill-rule="nonzero"/><path fill="#fefefe" d="M 973.746094 1101.667969 C 989.300781 1100.273438 1008.5625 1107.277344 1019.589844 1118.160156 C 1043.054688 1141.300781 1039.242188 1176.429688 1039.253906 1206.613281 L 1039.214844 1265.945312 C 1025.4375 1266.921875 1007.386719 1266.386719 993.265625 1266.328125 L 993.125 1204.398438 C 992.914062 1184.035156 996.304688 1141.96875 965.710938 1141.421875 C 926.816406 1140.734375 931.078125 1184.285156 931.152344 1211.140625 L 931.304688 1265.792969 C 920.136719 1266.949219 898.296875 1266.289062 886.199219 1266.214844 C 884.746094 1240.214844 885.558594 1208.734375 885.644531 1182.257812 C 885.484375 1172.933594 885.445312 1158.765625 878.929688 1151.761719 C 861.414062 1132.863281 831.347656 1143.046875 827.105469 1168.097656 C 821.871094 1198.949219 827.554688 1233.300781 825.25 1264.339844 L 825.109375 1266.117188 C 810.203125 1266.375 795.289062 1266.5 780.375 1266.460938 C 778.433594 1215.117188 779.152344 1155.820312 779.621094 1104.132812 L 822.957031 1104.378906 C 823.386719 1111.554688 823.484375 1115.683594 823.101562 1122.839844 C 849.890625 1094.605469 897.683594 1093.171875 920.242188 1127.484375 C 936.0625 1108.382812 949.632812 1104.3125 973.746094 1101.667969 Z M 973.746094 1101.667969 " fill-opacity="1" fill-rule="nonzero"/><path fill="#fefefe" d="M 663.292969 1102.566406 C 689.953125 1097.148438 726.089844 1113.496094 739.855469 1136.761719 C 751.480469 1156.421875 753.679688 1176.917969 751.425781 1199.199219 C 741.59375 1199.925781 722.945312 1199.410156 712.527344 1199.417969 L 633.945312 1199.4375 C 642.628906 1218.421875 653.347656 1230.011719 675.902344 1231.167969 C 692.652344 1232.019531 703.828125 1226.199219 715.777344 1215.175781 C 718.960938 1217.554688 721.621094 1220.191406 724.519531 1222.902344 C 730.414062 1228.539062 736.25 1234.246094 742.011719 1240.015625 C 714.621094 1276.285156 656.542969 1278.011719 621.761719 1252.445312 C 604.347656 1239.460938 592.84375 1220.054688 589.800781 1198.550781 C 586.25 1175.132812 592.335938 1151.273438 606.671875 1132.421875 C 621.566406 1112.894531 639.660156 1105.71875 663.292969 1102.566406 Z M 633.273438 1170.171875 C 647.347656 1170.183594 664.257812 1170.632812 678.101562 1170.039062 C 688.464844 1170.078125 700.109375 1170.363281 710.375 1169.894531 C 702.742188 1146.304688 692.921875 1135.804688 666.277344 1137.839844 C 647.308594 1142.855469 639.328125 1151.417969 633.273438 1170.171875 Z M 633.273438 1170.171875 " fill-opacity="1" fill-rule="nonzero"/><path fill="#fefefe" d="M 215.855469 1051.066406 C 248.46875 1048.285156 276.472656 1064.042969 297.902344 1087.191406 C 291.878906 1095.121094 275.53125 1110.648438 268.160156 1117.851562 L 267.222656 1116.917969 C 239.015625 1089.179688 202.644531 1082.082031 172.09375 1112.253906 C 147.5625 1136.484375 148.539062 1186.605469 174.242188 1210.503906 C 186.625 1221.890625 202.972656 1227.976562 219.785156 1227.46875 C 240.464844 1226.675781 254.335938 1214.945312 267.625 1200.535156 L 275.425781 1208.640625 C 280.902344 1214.65625 291.46875 1224.355469 297.453125 1229.898438 C 295.78125 1232.402344 293.960938 1234.800781 292 1237.082031 C 274.617188 1257.597656 249.789062 1267.742188 223.390625 1269.84375 C 193.683594 1272.128906 164.3125 1262.355469 141.894531 1242.738281 C 82.414062 1191.421875 99.488281 1086.53125 173.640625 1059.199219 C 189.207031 1053.457031 199.304688 1051.917969 215.855469 1051.066406 Z M 215.855469 1051.066406 " fill-opacity="1" fill-rule="nonzero"/><path fill="#fefefe" d="M 1128.460938 1102.605469 C 1150.445312 1099.726562 1179.550781 1104.972656 1195.839844 1120.902344 C 1218.207031 1142.761719 1214.765625 1180.167969 1214.882812 1208.78125 L 1214.910156 1266.070312 C 1204.503906 1266.882812 1183.621094 1266.566406 1173.128906 1266.011719 C 1172.125 1260.023438 1172.058594 1255.597656 1171.847656 1249.542969 C 1146.183594 1275.0625 1105.300781 1276.648438 1078.347656 1252.503906 C 1070.90625 1244.058594 1066.453125 1233.414062 1065.671875 1222.1875 C 1064.636719 1205.839844 1072.035156 1188.480469 1086.652344 1180.273438 C 1112.074219 1165.996094 1141.941406 1171.195312 1169.535156 1169.4375 C 1166.183594 1155.335938 1161.796875 1144.375 1145.699219 1140.800781 C 1125.328125 1136.292969 1105.882812 1143.507812 1088.5625 1154.035156 C 1082.714844 1144.929688 1076.878906 1132.902344 1071.832031 1123.125 C 1089.039062 1109.828125 1107.058594 1104.984375 1128.460938 1102.605469 Z M 1119.507812 1201.167969 C 1093.710938 1223.992188 1123.714844 1242.691406 1148.648438 1234.265625 C 1166.582031 1225.453125 1168.152344 1218.097656 1168.3125 1198.894531 C 1155.96875 1199.675781 1143.023438 1198.550781 1130.753906 1199.09375 C 1126.644531 1199.648438 1123.523438 1199.945312 1119.507812 1201.167969 Z M 1119.507812 1201.167969 " fill-opacity="1" fill-rule="nonzero"/><path fill="#fefefe" d="M 490.273438 1102.535156 C 509.132812 1099.488281 532.945312 1106.261719 545.976562 1120.539062 C 566.3125 1142.808594 562.003906 1174.1875 562.222656 1201.882812 C 562.390625 1223.179688 562.425781 1244.316406 561.425781 1265.582031 C 551.121094 1266.941406 528.152344 1266.328125 516.742188 1266.28125 C 513.597656 1239.222656 521.386719 1177.234375 510.46875 1156.863281 C 506.960938 1150.320312 501.453125 1144.890625 494.171875 1142.867188 C 484.121094 1140.085938 473.835938 1143.800781 465.164062 1148.78125 C 446.789062 1163.90625 450.230469 1192.425781 450.375 1213.914062 L 450.621094 1266.042969 C 435.652344 1266.664062 419.488281 1266.40625 404.417969 1266.414062 C 403.152344 1243.101562 403.84375 1213.332031 403.871094 1189.710938 C 403.898438 1161.992188 403.199219 1131.792969 404.21875 1104.429688 C 417.097656 1103.710938 435.28125 1104.179688 448.472656 1104.121094 C 448.699219 1110.226562 448.570312 1116.34375 448.503906 1122.457031 C 460.710938 1109.292969 472.996094 1105.03125 490.273438 1102.535156 Z M 490.273438 1102.535156 " fill-opacity="1" fill-rule="nonzero"/><path fill="#fefefe" d="M 321.222656 1104.3125 C 336.308594 1103.96875 352.15625 1104.285156 367.300781 1104.363281 C 367.523438 1112.359375 367.589844 1120.679688 367.457031 1128.6875 C 366.703125 1174.253906 368.449219 1220.621094 367.128906 1266.089844 C 354.945312 1266.941406 335.050781 1266.300781 322.292969 1266.28125 C 320.925781 1249.972656 321.433594 1225.558594 321.34375 1208.570312 Z M 321.222656 1104.3125 " fill-opacity="1" fill-rule="nonzero"/><path fill="#fefefe" d="M 337.953125 1031.660156 C 351.976562 1030.535156 365.574219 1034.679688 371.214844 1048.832031 C 373.71875 1055.128906 373.515625 1062.179688 370.660156 1068.332031 C 366.640625 1076.988281 359.863281 1081.019531 351.269531 1084.03125 C 344.324219 1085.683594 337.898438 1085.042969 331.398438 1081.84375 C 324.597656 1078.480469 319.457031 1072.496094 317.167969 1065.253906 C 315.027344 1058.710938 315.589844 1051.582031 318.734375 1045.449219 C 323.167969 1036.964844 329.476562 1034.183594 337.953125 1031.660156 Z M 337.953125 1031.660156 " fill-opacity="1" fill-rule="nonzero"/></svg>